<svg width="12" height="12" viewBox="0 0 12 12" fill="none" xmlns="http://www.w3.org/2000/svg">
<path d="M7.5 10.5V8C7.5 7.86739 7.44732 7.74021 7.35355 7.64645C7.25979 7.55268 7.13261 7.5 7 7.5H5C4.86739 7.5 4.74021 7.55268 4.64645 7.64645C4.55268 7.74021 4.5 7.86739 4.5 8V10.5" stroke="white" stroke-linecap="round" stroke-linejoin="round"/>
<path d="M8.88698 5.155C8.78274 5.05522 8.64402 4.99952 8.49973 4.99952C8.35543 4.99952 8.21671 5.05522 8.11248 5.155C7.87998 5.37676 7.57102 5.50048 7.24973 5.50048C6.92843 5.50048 6.61947 5.37676 6.38698 5.155C6.28277 5.05537 6.14415 4.99976 5.99998 4.99976C5.8558 4.99976 5.71718 5.05537 5.61298 5.155C5.38046 5.37691 5.07139 5.50072 4.74998 5.50072C4.42856 5.50072 4.1195 5.37691 3.88698 5.155C3.78274 5.05522 3.64402 4.99952 3.49973 4.99952C3.35543 4.99952 3.21671 5.05522 3.11248 5.155C2.8879 5.36931 2.59161 5.49238 2.28129 5.50027C1.97097 5.50816 1.66881 5.40031 1.43363 5.19769C1.19845 4.99507 1.04707 4.7122 1.00897 4.40412C0.970863 4.09605 1.04875 3.78481 1.22748 3.531L2.67198 1.439C2.76363 1.30376 2.88702 1.19303 3.03137 1.1165C3.17571 1.03997 3.3366 0.99997 3.49998 1H8.49998C8.66287 0.999938 8.82332 1.03967 8.96736 1.11574C9.11141 1.19182 9.23468 1.30193 9.32648 1.4365L10.774 3.5325C10.9527 3.78651 11.0305 4.09798 10.9922 4.40622C10.9538 4.71445 10.8021 4.99737 10.5666 5.19985C10.331 5.40232 10.0285 5.50984 9.71801 5.50145C9.40752 5.49307 9.11126 5.36939 8.88698 5.1545" stroke="white" stroke-linecap="round" stroke-linejoin="round"/>
<path d="M2 5.47461V9.49961C2 9.76483 2.10536 10.0192 2.29289 10.2067C2.48043 10.3943 2.73478 10.4996 3 10.4996H9C9.26522 10.4996 9.51957 10.3943 9.70711 10.2067C9.89464 10.0192 10 9.76483 10 9.49961V5.47461" stroke="white" stroke-linecap="round" stroke-linejoin="round"/>
</svg>
