<svg width="16" height="16" viewBox="0 0 16 16" fill="none" xmlns="http://www.w3.org/2000/svg">
<path d="M10 14V10.6667C10 10.4899 9.92976 10.3203 9.80474 10.1953C9.67971 10.0702 9.51014 10 9.33333 10H6.66667C6.48986 10 6.32029 10.0702 6.19526 10.1953C6.07024 10.3203 6 10.4899 6 10.6667V14" stroke="#0A0A0A" stroke-width="1.33333" stroke-linecap="round" stroke-linejoin="round"/>
<path d="M11.8491 6.87301C11.7102 6.73997 11.5252 6.6657 11.3328 6.6657C11.1404 6.6657 10.9554 6.73997 10.8165 6.87301C10.5065 7.16869 10.0945 7.33364 9.66614 7.33364C9.23774 7.33364 8.8258 7.16869 8.51581 6.87301C8.37686 6.74016 8.19204 6.66602 7.99981 6.66602C7.80757 6.66602 7.62275 6.74016 7.4838 6.87301C7.17378 7.16888 6.76169 7.33396 6.33314 7.33396C5.90458 7.33396 5.4925 7.16888 5.18247 6.87301C5.0435 6.73997 4.85853 6.6657 4.66614 6.6657C4.47375 6.6657 4.28878 6.73997 4.14981 6.87301C3.85037 7.15875 3.45532 7.32285 3.04156 7.33337C2.62779 7.34389 2.22492 7.20008 1.91134 6.92993C1.59777 6.65977 1.39594 6.2826 1.34513 5.87184C1.29432 5.46107 1.39817 5.04609 1.63647 4.70767L3.56247 1.91834C3.68468 1.73802 3.8492 1.59038 4.04166 1.48834C4.23411 1.3863 4.44864 1.33297 4.66647 1.33301H11.3331C11.5503 1.33292 11.7643 1.3859 11.9563 1.48733C12.1484 1.58876 12.3127 1.73558 12.4351 1.91501L14.3651 4.70967C14.6035 5.04836 14.7072 5.46365 14.6561 5.87463C14.605 6.28561 14.4027 6.66284 14.0886 6.9328C13.7745 7.20276 13.3712 7.34612 12.9572 7.33495C12.5432 7.32377 12.1482 7.15886 11.8491 6.87234" stroke="#0A0A0A" stroke-width="1.33333" stroke-linecap="round" stroke-linejoin="round"/>
<path d="M2.6665 7.2998V12.6665C2.6665 13.0201 2.80698 13.3592 3.05703 13.6093C3.30708 13.8593 3.64622 13.9998 3.99984 13.9998H11.9998C12.3535 13.9998 12.6926 13.8593 12.9426 13.6093C13.1927 13.3592 13.3332 13.0201 13.3332 12.6665V7.2998" stroke="#0A0A0A" stroke-width="1.33333" stroke-linecap="round" stroke-linejoin="round"/>
</svg>
