<svg width="20" height="22" viewBox="0 0 20 22" fill="none" xmlns="http://www.w3.org/2000/svg">
<path d="M13.3984 2.39739e-06C13.8481 -0.00105628 14.204 0.348636 14.2051 0.814456L14.2061 1.6084C17.1238 1.8371 19.0516 3.82505 19.0547 6.87403L19.0654 15.7988C19.0696 19.123 16.9813 21.1685 13.6338 21.1738L5.45704 21.1846C2.13044 21.1888 0.0159771 19.0944 0.0117254 15.7607L6.66031e-06 6.94043C-0.00406147 3.87148 1.85578 1.88893 4.77344 1.6211L4.77149 0.827151C4.77045 0.361331 5.11603 0.0107446 5.57618 0.0107446C6.03632 0.00969379 6.38177 0.359384 6.38282 0.825198L6.3838 1.56543L12.5957 1.55762L12.5947 0.816409C12.5937 0.350662 12.9384 0.001169 13.3984 2.39739e-06ZM13.8154 15.0322C13.3344 15.0439 12.9485 15.4476 12.959 15.9346C12.9602 16.4214 13.3482 16.8224 13.8291 16.833C14.3193 16.8316 14.7169 16.428 14.7158 15.9307C14.7156 15.4333 14.3165 15.0324 13.8252 15.0322H13.8154ZM5.20801 15.0332C4.72712 15.0544 4.35076 15.4576 4.35157 15.9443C4.37353 16.4313 4.77091 16.8132 5.25196 16.791C5.72361 16.7698 6.09912 16.3659 6.07716 15.8789C6.06657 15.4026 5.67854 15.0321 5.20801 15.0332ZM9.51661 15.0283C9.03574 15.0507 8.66019 15.4526 8.66016 15.9395C8.68213 16.4263 9.07964 16.8062 9.56055 16.7852C10.031 16.7628 10.4076 16.3609 10.3857 15.873C10.3753 15.3978 9.9871 15.0274 9.51661 15.0283ZM5.20313 11.2217C4.72207 11.2429 4.34662 11.6468 4.34766 12.1338C4.36871 12.6207 4.76708 13.0017 5.24805 12.9795C5.71838 12.9582 6.09396 12.5551 6.07227 12.0684C6.06182 11.5921 5.67464 11.2208 5.20313 11.2217ZM9.5127 11.1846C9.03166 11.2058 8.65521 11.6097 8.65626 12.0967C8.67727 12.5836 9.07567 12.9635 9.55665 12.9424C10.027 12.92 10.4025 12.518 10.3818 12.0313C10.3703 11.5549 9.98319 11.1837 9.5127 11.1846ZM13.8213 11.1904C13.3404 11.2011 12.964 11.5924 12.9649 12.0791V12.0908C12.9753 12.5777 13.3726 12.9479 13.8545 12.9375C14.325 12.9257 14.7009 12.522 14.6904 12.0352C14.6685 11.5694 14.2907 11.1895 13.8213 11.1904ZM6.38575 3.19629L6.38673 4.05274C6.38667 4.50879 6.04284 4.86884 5.58301 4.86914C5.12287 4.8702 4.77638 4.51098 4.77637 4.05469L4.7754 3.23926C2.73615 3.44358 1.60726 4.64229 1.61036 6.93848L1.61231 7.26758L17.4453 7.24707V6.87598C17.4003 4.60002 16.2575 3.40547 14.208 3.22754L14.209 4.04297C14.209 4.49808 13.8548 4.85919 13.4053 4.85938C12.9451 4.86044 12.5986 4.50015 12.5986 4.04492L12.5977 3.1875L6.38575 3.19629Z" fill="#007C71"/>
</svg>
