<svg width="14" height="15" viewBox="0 0 14 15" fill="none" xmlns="http://www.w3.org/2000/svg">
<path d="M7.25016 0.833313C3.56683 0.833313 0.583496 3.81665 0.583496 7.49998C0.583496 11.1833 3.56683 14.1666 7.25016 14.1666C10.9335 14.1666 13.9168 11.1833 13.9168 7.49998C13.9168 3.81665 10.9335 0.833313 7.25016 0.833313ZM9.84183 10.0916C9.68747 10.2438 9.47942 10.3291 9.26266 10.3291C9.04591 10.3291 8.83786 10.2438 8.6835 10.0916L6.90016 8.30831C6.59183 7.99998 6.41683 7.57498 6.41683 7.13331V4.99998C6.41683 4.52498 6.81683 4.13331 7.3085 4.16665C7.75016 4.19998 8.0835 4.58331 8.0835 5.02498V7.17498L9.84183 8.93331C9.994 9.08768 10.0793 9.29572 10.0793 9.51248C10.0793 9.72923 9.994 9.93728 9.84183 10.0916Z" fill="white"/>
</svg>
