<svg width="22" height="20" viewBox="0 0 22 20" fill="none" xmlns="http://www.w3.org/2000/svg">
<path d="M15.375 0C19.028 0 21.1845 2.102 21.1846 5.7002H16.7021V5.7373C14.6224 5.73753 12.9365 7.38144 12.9365 9.40918C12.9366 11.4368 14.6225 13.0808 16.7021 13.0811H21.1846V13.4111C21.1846 16.9636 19.0281 19.0654 15.375 19.0654H5.80957C2.15647 19.0654 0 16.9636 0 13.4111V5.6543C0.000107796 2.102 2.15656 0 5.80957 0H15.375ZM20.3936 7.2793C20.8302 7.27942 21.1846 7.62502 21.1846 8.05078V10.7305C21.1795 11.1542 20.8281 11.4969 20.3936 11.502H16.7871C15.7343 11.5156 14.814 10.8123 14.5752 9.8125C14.4557 9.19186 14.6229 8.55109 15.0332 8.0625C15.4436 7.57392 16.0554 7.28741 16.7031 7.2793H20.3936ZM16.8633 8.51855C16.6495 8.5161 16.4431 8.59763 16.291 8.74414C16.139 8.89072 16.0527 9.09035 16.0527 9.29883C16.0527 9.73631 16.4146 10.0926 16.8633 10.0977H17.2109C17.658 10.0975 18.0205 9.74354 18.0205 9.30762C18.0203 8.87187 17.6579 8.51867 17.2109 8.51855H16.8633ZM5.01855 4.12207C4.57518 4.12204 4.2144 4.46919 4.20898 4.90137C4.20895 5.33887 4.56985 5.69517 5.01855 5.7002H10.9971C11.4442 5.70014 11.8066 5.34704 11.8066 4.91113C11.8066 4.47518 11.4442 4.12213 10.9971 4.12207H5.01855Z" fill="#007C71"/>
</svg>
