<svg width="15" height="15" viewBox="0 0 15 15" fill="none" xmlns="http://www.w3.org/2000/svg">
<path d="M7.50008 0.416687C3.59008 0.416687 0.416748 3.59002 0.416748 7.50002C0.416748 11.41 3.59008 14.5834 7.50008 14.5834C11.4101 14.5834 14.5834 11.41 14.5834 7.50002C14.5834 3.59002 11.4101 0.416687 7.50008 0.416687ZM8.12341 11.58V12.4584H6.88383V11.5446C6.35966 11.4171 5.19091 10.9992 4.74466 9.44794L5.91341 8.97335C5.95591 9.12919 6.32425 10.4538 7.61341 10.4538C8.27216 10.4538 9.01591 10.1138 9.01591 9.31335C9.01591 8.63335 8.52008 8.27919 7.40091 7.87544C6.62175 7.59919 5.028 7.14585 5.028 5.53085C5.028 5.46002 5.03508 3.83085 6.88383 3.43419V2.54169H8.12341V3.42002C9.42675 3.64669 9.90133 4.68794 10.0076 4.9996L8.88841 5.47419C8.8105 5.22627 8.4705 4.52502 7.54258 4.52502C7.04675 4.52502 6.2605 4.7871 6.2605 5.5096C6.2605 6.18252 6.86966 6.43752 8.1305 6.85544C9.8305 7.44335 10.2626 8.30752 10.2626 9.29919C10.2626 11.1621 8.49175 11.5163 8.12341 11.58Z" fill="#D87355"/>
</svg>
