<svg width="23" height="22" viewBox="0 0 23 22" fill="none" xmlns="http://www.w3.org/2000/svg">
<path d="M3.41429 12.8236C4.18829 9.09555 7.4239 6.44663 11.0635 6.44663C14.702 6.44663 17.9376 9.09555 18.7128 12.8236C18.7435 12.9716 18.8315 13.1012 18.9575 13.184C19.0835 13.2669 19.2372 13.2961 19.3846 13.2653C19.5321 13.2345 19.6614 13.1462 19.744 13.0198C19.8265 12.8934 19.8557 12.7393 19.825 12.5914C18.9432 8.35108 15.2547 5.30829 11.0635 5.30829C6.87234 5.30829 3.1839 8.35108 2.30208 12.5914C2.27138 12.7393 2.30053 12.8934 2.38311 13.0198C2.46569 13.1462 2.59494 13.2345 2.74243 13.2653C2.88991 13.2961 3.04356 13.2669 3.16956 13.184C3.29555 13.1012 3.38359 12.9716 3.41429 12.8236ZM11.0522 8.72331C12.1057 8.72331 13.116 9.14308 13.8609 9.89026C14.6059 10.6374 15.0243 11.6508 15.0243 12.7075C15.0243 13.7642 14.6059 14.7776 13.8609 15.5248C13.116 16.2719 12.1057 16.6917 11.0522 16.6917C9.9987 16.6917 8.98837 16.2719 8.24344 15.5248C7.49852 14.7776 7.08003 13.7642 7.08003 12.7075C7.08003 11.6508 7.49852 10.6374 8.24344 9.89026C8.98837 9.14308 9.9987 8.72331 11.0522 8.72331Z" fill="#A9A9A3"/>
</svg>
