<svg width="25" height="25" viewBox="0 0 25 25" fill="none" xmlns="http://www.w3.org/2000/svg">
<path d="M12.0444 2.20569C7.84443 2.20569 4.04443 5.42569 4.04443 10.4057C4.04443 13.5857 6.49443 17.3257 11.3844 21.6357C11.7644 21.9657 12.3344 21.9657 12.7144 21.6357C17.5944 17.3257 20.0444 13.5857 20.0444 10.4057C20.0444 5.42569 16.2444 2.20569 12.0444 2.20569ZM12.0444 12.2057C10.9444 12.2057 10.0444 11.3057 10.0444 10.2057C10.0444 9.10569 10.9444 8.20569 12.0444 8.20569C13.1444 8.20569 14.0444 9.10569 14.0444 10.2057C14.0444 11.3057 13.1444 12.2057 12.0444 12.2057Z" fill="black"/>
</svg>
