<svg width="25" height="25" viewBox="0 0 25 25" fill="none" xmlns="http://www.w3.org/2000/svg">
<path d="M15.0444 11.5444V5.54443L12.0444 2.54443L9.04443 5.54443V7.54443H3.04443V21.5444H21.0444V11.5444H15.0444ZM7.04443 19.5444H5.04443V17.5444H7.04443V19.5444ZM7.04443 15.5444H5.04443V13.5444H7.04443V15.5444ZM7.04443 11.5444H5.04443V9.54443H7.04443V11.5444ZM13.0444 19.5444H11.0444V17.5444H13.0444V19.5444ZM13.0444 15.5444H11.0444V13.5444H13.0444V15.5444ZM13.0444 11.5444H11.0444V9.54443H13.0444V11.5444ZM13.0444 7.54443H11.0444V5.54443H13.0444V7.54443ZM19.0444 19.5444H17.0444V17.5444H19.0444V19.5444ZM19.0444 15.5444H17.0444V13.5444H19.0444V15.5444Z" fill="black"/>
</svg>
