<svg width="13" height="15" viewBox="0 0 13 15" fill="none" xmlns="http://www.w3.org/2000/svg">
<path d="M6.49992 0.416687C3.52492 0.416687 0.833252 2.69752 0.833252 6.22502C0.833252 8.47752 2.56867 11.1267 6.03242 14.1796C6.30159 14.4134 6.70534 14.4134 6.9745 14.1796C10.4312 11.1267 12.1666 8.47752 12.1666 6.22502C12.1666 2.69752 9.47492 0.416687 6.49992 0.416687ZM6.49992 7.50002C5.72075 7.50002 5.08325 6.86252 5.08325 6.08335C5.08325 5.30419 5.72075 4.66669 6.49992 4.66669C7.27909 4.66669 7.91658 5.30419 7.91658 6.08335C7.91658 6.86252 7.27909 7.50002 6.49992 7.50002Z" fill="white"/>
</svg>
