<svg width="14" height="13" viewBox="0 0 14 13" fill="none" xmlns="http://www.w3.org/2000/svg">
<path d="M1.78914 6.85286L6.50269 6.86589C6.54175 6.86589 6.56779 6.8724 6.58081 6.88542C6.59817 6.89844 6.60685 6.92882 6.60685 6.97656L6.61987 11.651C6.61987 11.8724 6.66762 12.0569 6.7631 12.2044C6.85859 12.3563 6.98229 12.467 7.1342 12.5365C7.28611 12.6102 7.4467 12.6385 7.61597 12.6211C7.78958 12.6037 7.95234 12.5386 8.10425 12.4258C8.2605 12.3129 8.38637 12.1523 8.48185 11.944L13.28 1.57943C13.4059 1.30165 13.4536 1.05208 13.4233 0.830729C13.3972 0.609375 13.3082 0.431424 13.1563 0.296875C13.0088 0.157986 12.8221 0.0776912 12.5964 0.0559898C12.3707 0.0342885 12.1233 0.0863718 11.8542 0.21224L1.43758 5.01693C1.24227 5.10807 1.09253 5.22743 0.988363 5.375C0.888536 5.52257 0.829942 5.68099 0.812581 5.85026C0.799561 6.01953 0.827772 6.18012 0.897217 6.33203C0.971001 6.48394 1.08168 6.60764 1.22925 6.70313C1.37682 6.79861 1.56345 6.84852 1.78914 6.85286Z" fill="white"/>
</svg>
