<svg width="25" height="25" viewBox="0 0 25 25" fill="none" xmlns="http://www.w3.org/2000/svg">
<path d="M19.0444 15.2244V7.04443C19.0444 4.83443 17.2544 3.04443 15.0444 3.04443C12.8344 3.04443 11.0444 4.83443 11.0444 7.04443V17.0444C11.0444 18.1444 10.1444 19.0444 9.04443 19.0444C7.94443 19.0444 7.04443 18.1444 7.04443 17.0444V8.86443C8.20443 8.44443 9.04443 7.34443 9.04443 6.04443C9.04443 4.38443 7.70443 3.04443 6.04443 3.04443C4.38443 3.04443 3.04443 4.38443 3.04443 6.04443C3.04443 7.34443 3.88443 8.44443 5.04443 8.86443V17.0444C5.04443 19.2544 6.83443 21.0444 9.04443 21.0444C11.2544 21.0444 13.0444 19.2544 13.0444 17.0444V7.04443C13.0444 5.94443 13.9444 5.04443 15.0444 5.04443C16.1444 5.04443 17.0444 5.94443 17.0444 7.04443V15.2244C15.8844 15.6344 15.0444 16.7344 15.0444 18.0444C15.0444 19.7044 16.3844 21.0444 18.0444 21.0444C19.7044 21.0444 21.0444 19.7044 21.0444 18.0444C21.0444 16.7444 20.2044 15.6444 19.0444 15.2244ZM6.04443 7.04443C5.49443 7.04443 5.04443 6.59443 5.04443 6.04443C5.04443 5.49443 5.49443 5.04443 6.04443 5.04443C6.59443 5.04443 7.04443 5.49443 7.04443 6.04443C7.04443 6.59443 6.59443 7.04443 6.04443 7.04443ZM18.0444 19.0444C17.4944 19.0444 17.0444 18.5944 17.0444 18.0444C17.0444 17.4944 17.4944 17.0444 18.0444 17.0444C18.5944 17.0444 19.0444 17.4944 19.0444 18.0444C19.0444 18.5944 18.5944 19.0444 18.0444 19.0444Z" fill="black"/>
</svg>
