<svg width="12" height="12" viewBox="0 0 12 12" fill="none" xmlns="http://www.w3.org/2000/svg">
<path d="M8 5C8 5.53043 7.78929 6.03914 7.41421 6.41421C7.03914 6.78929 6.53043 7 6 7C5.46957 7 4.96086 6.78929 4.58579 6.41421C4.21071 6.03914 4 5.53043 4 5" stroke="#0A0A0A" stroke-linecap="round" stroke-linejoin="round"/>
<path d="M1.55127 3.0166H10.4483" stroke="#0A0A0A" stroke-linecap="round" stroke-linejoin="round"/>
<path d="M1.7 2.7335C1.57018 2.9066 1.5 3.11713 1.5 3.3335V10C1.5 10.2652 1.60536 10.5196 1.79289 10.7071C1.98043 10.8946 2.23478 11 2.5 11H9.5C9.76522 11 10.0196 10.8946 10.2071 10.7071C10.3946 10.5196 10.5 10.2652 10.5 10V3.3335C10.5 3.11713 10.4298 2.9066 10.3 2.7335L9.3 1.4C9.20685 1.2758 9.08607 1.175 8.94721 1.10557C8.80836 1.03615 8.65525 1 8.5 1H3.5C3.34475 1 3.19164 1.03615 3.05279 1.10557C2.91393 1.175 2.79315 1.2758 2.7 1.4L1.7 2.7335Z" stroke="#0A0A0A" stroke-linecap="round" stroke-linejoin="round"/>
</svg>
