<svg width="24" height="13" viewBox="0 0 24 13" fill="none" xmlns="http://www.w3.org/2000/svg">
<path d="M22.4193 0.161255H1.58096C0.709226 0.161255 0 0.73415 0 1.43807V11.562C0 12.2659 0.709226 12.8388 1.58096 12.8388H22.4193C23.2908 12.8388 24 12.2659 24 11.562V1.43807C23.9999 0.733898 23.2908 0.161255 22.4193 0.161255ZM7.43284 11.5386H5.76019V10.099H7.43284V11.5386ZM7.43284 8.65932H5.76019V7.21975H7.43284V8.65932ZM7.43284 5.78018H5.76019V4.34048H7.43284V5.78018ZM7.43284 2.90091H5.76019V1.46121H7.43284V2.90091ZM19.7226 4.63401L18.4355 5.8381L19.5952 9.71178L18.9456 10.3613C18.8743 10.4324 18.7588 10.4324 18.6875 10.3613L16.9588 7.2195L15.3689 8.78769L15.6221 10.0235L15.2175 10.4283C15.1638 10.4821 15.0765 10.4821 15.0233 10.4286L12.7331 8.13841C12.6793 8.08466 12.6793 7.99765 12.7331 7.94415L13.1376 7.53908L14.3508 7.78658L15.92 6.19056L12.8002 4.47327C12.7289 4.40245 12.7289 4.28698 12.7997 4.21566L13.4499 3.56612L17.2979 4.71798L18.5106 3.4217C18.8649 3.06734 19.4235 3.05178 19.7582 3.38654C20.0923 3.72105 20.0764 4.27978 19.7226 4.63401Z" fill="#FCFCF7"/>
</svg>
